<?xml version="1.0" encoding="UTF-8"?><svg xmlns="http://www.w3.org/2000/svg" xmlns:xlink="http://www.w3.org/1999/xlink" viewBox="0 0 2190.77 280.24"><defs><style>.e{fill:none;}.e,.f{stroke:#fff;stroke-miterlimit:10;stroke-width:11.81px;}.f{fill:#2581c4;}.g{fill:#40bac1;}.h{fill:url(#d);}.i{fill:#076b78;}</style><linearGradient id="d" x1="51.25" y1="81.62" x2="285.33" y2="235.7" gradientTransform="matrix(1, 0, 0, 1, 0, 0)" gradientUnits="userSpaceOnUse"><stop offset="0" stop-color="#40bac2"/><stop offset=".29" stop-color="#32a7b0"/><stop offset=".87" stop-color="#0f7783"/><stop offset="1" stop-color="#076b78"/></linearGradient></defs><g id="a"/><g id="b"><g id="c"><g><rect class="h" width="280.24" height="280.24" rx="11.81" ry="11.81"/><path class="e" d="M38.85,102.27s87.31-49.07,185.45,0"/><polygon class="e" points="235.69 107.89 228.4 95.25 221.1 107.89 235.69 107.89"/><path class="e" d="M241.39,177.97s-87.31,49.07-185.45,0"/><polygon class="f" points="44.55 172.35 51.85 184.99 59.14 172.35 44.55 172.35"/><g><path class="g" d="M327.31,171.49V90.56h32.16v80.94c0,26.63,13.18,38.23,35.06,38.23s35.33-11.6,35.33-38.23V90.56h32.16v80.94c0,44.03-25.31,69.34-67.49,69.34s-67.23-25.31-67.23-69.34Z"/><path class="g" d="M494.2,90.56h27.95l2.64,25.57c10.81-20.3,26.89-29,50.36-29,33.75,0,56.16,21.88,56.16,65.91v84.63h-32.16v-84.63c0-23.2-12.13-34.54-33.48-34.54-25.84,0-39.28,15.03-39.28,44.82v74.35h-32.16V90.56Z"/><path class="g" d="M665.31,72.36V39.41h36.12v32.95h-36.12Zm2.11,165.31V90.56h32.16V237.67h-32.16Z"/><path class="g" d="M742.29,187.05V120.61h-21.36v-22.41l21.36-7.65,7.91-31.11h24.26v31.11h47.98v30.06h-47.98v65.91c0,17.93,7.12,23.73,23.46,23.73,8.17,0,14.76-1.32,21.88-4.48v28.74c-6.33,3.95-20.04,6.33-29.53,6.33-26.1,0-47.98-13.45-47.98-53.78Z"/><path class="i" d="M836.41,164.11c0-44.56,25.57-76.72,74.87-76.72,22.67,0,40.6,5.8,54.58,16.87l-15.29,25.57c-13.97-8.7-22.94-11.34-36.65-11.34-31.64,0-43.76,18.72-43.76,45.61s10.81,45.61,43.76,45.61c13.97,0,24.26-2.9,40.07-12.13l14.5,26.36c-17.67,11.34-35.06,16.87-59.85,16.87-47.98,0-72.24-32.17-72.24-76.72Z"/><path class="i" d="M980.36,164.11c0-45.61,25.31-76.72,78.04-76.72s78.04,31.11,78.04,76.72-25.31,76.72-78.04,76.72-78.04-31.11-78.04-76.72Zm122.33,0c0-27.68-12.13-45.61-44.29-45.61s-44.29,17.93-44.29,45.61,12.13,45.61,44.29,45.61,44.29-17.93,44.29-45.61Z"/><path class="i" d="M1164.92,90.56h27.95l2.64,25.57c10.81-20.3,26.89-29,50.36-29,33.75,0,56.16,21.88,56.16,65.91v84.63h-32.16v-84.63c0-23.2-12.13-34.54-33.48-34.54-25.84,0-39.28,15.03-39.28,44.82v74.35h-32.16V90.56Z"/><path class="i" d="M1319.42,90.56h35.33l29.53,70.13c5.01,11.86,9.49,22.94,13.45,32.96,3.95-10.02,8.96-21.62,13.71-32.43l30.06-70.66h35.06l-67.23,147.11h-22.67l-67.23-147.11Z"/><path class="i" d="M1484.73,164.11c0-44.56,26.89-76.72,73.29-76.72s69.87,31.11,69.87,76.72c0,5.27-.53,9.23-1.32,14.24h-107.04c2.37,22.15,21.88,33.48,44.56,33.48,18.98,0,30.58-3.69,45.87-11.86l12.13,25.57c-16.08,10.02-34.27,15.29-60.37,15.29-49.57,0-76.98-31.11-76.98-76.72Zm110.2-11.6c-.79-22.94-12.39-36.12-36.91-36.12-23.2,0-37.7,13.71-37.7,36.12h74.61Z"/><path class="i" d="M1656.36,90.56h27.42l2.64,25.57c11.07-21.88,26.89-29,45.08-29,2.64,0,8.7,.53,13.45,2.11v33.75c-9.49-2.64-17.67-2.64-20.57-2.64-22.67,0-35.86,17.67-35.86,44.03v73.29h-32.16V90.56Z"/><path class="i" d="M1783.17,187.05V120.61h-21.35v-22.41l21.35-7.65,7.91-31.11h24.26v31.11h47.98v30.06h-47.98v65.91c0,17.93,7.12,23.73,23.46,23.73,8.17,0,14.76-1.32,21.88-4.48v28.74c-6.33,3.95-20.04,6.33-29.53,6.33-26.1,0-47.98-13.45-47.98-53.78Z"/><path class="i" d="M1877.29,164.11c0-44.56,26.89-76.72,73.29-76.72s69.87,31.11,69.87,76.72c0,5.27-.53,9.23-1.32,14.24h-107.04c2.37,22.15,21.88,33.48,44.56,33.48,18.98,0,30.58-3.69,45.87-11.86l12.13,25.57c-16.08,10.02-34.27,15.29-60.37,15.29-49.57,0-76.98-31.11-76.98-76.72Zm110.2-11.6c-.79-22.94-12.39-36.12-36.91-36.12-23.2,0-37.7,13.71-37.7,36.12h74.61Z"/><path class="i" d="M2161.77,240.83c-2.64-8.17-5.01-16.61-6.06-27.16-11.34,20.04-31.9,27.16-49.57,27.16-37.97,0-65.65-25.84-65.65-73.56s32.17-80.15,80.41-80.15c10.81,0,22.41,2.11,33.22,5.54V47.84l32.16-8.44V186c0,21.35,.26,35.06,4.48,54.84h-29Zm-7.65-76.98v-42.18c-8.44-4.48-18.19-6.59-34.27-6.59-31.9,0-45.61,21.62-45.61,52.2,0,28.21,13.18,45.08,38.23,45.08,26.89,0,41.66-21.62,41.66-48.51Z"/></g></g></g></g></svg>